<svg width="64" height="64" viewBox="0 0 64 64" fill="none" xmlns="http://www.w3.org/2000/svg">
<rect width="64" height="64" rx="20" fill="#212121"/>
<path d="M16.078 26.242V36H20.768V34.964H17.352V26.242H16.078ZM29.401 32.15C29.401 29.728 27.707 28.202 25.523 28.202C23.353 28.202 21.645 29.728 21.645 32.15C21.645 34.586 23.297 36.126 25.467 36.126C27.651 36.126 29.401 34.586 29.401 32.15ZM22.947 32.15C22.947 30.218 24.165 29.308 25.509 29.308C26.825 29.308 28.099 30.218 28.099 32.15C28.099 34.096 26.797 35.006 25.467 35.006C24.137 35.006 22.947 34.096 22.947 32.15ZM30.6 32.136C30.6 34.516 32.182 36.126 34.24 36.126C35.64 36.126 36.634 35.384 37.096 34.558V36.168C37.096 37.806 36.074 38.674 34.716 38.674C33.456 38.674 32.546 38.044 32.266 37.12H31.006C31.258 38.758 32.7 39.78 34.716 39.78C36.97 39.78 38.384 38.282 38.384 36.168V28.328H37.096V29.728C36.648 28.902 35.64 28.202 34.24 28.202C32.182 28.202 30.6 29.742 30.6 32.136ZM37.096 32.15C37.096 33.956 35.892 35.006 34.492 35.006C33.092 35.006 31.902 33.942 31.902 32.136C31.902 30.33 33.092 29.308 34.492 29.308C35.892 29.308 37.096 30.372 37.096 32.15ZM47.817 32.15C47.817 29.728 46.123 28.202 43.939 28.202C41.769 28.202 40.061 29.728 40.061 32.15C40.061 34.586 41.713 36.126 43.883 36.126C46.067 36.126 47.817 34.586 47.817 32.15ZM41.363 32.15C41.363 30.218 42.581 29.308 43.925 29.308C45.241 29.308 46.515 30.218 46.515 32.15C46.515 34.096 45.213 35.006 43.883 35.006C42.553 35.006 41.363 34.096 41.363 32.15Z" fill="white"/>
</svg>
