<svg width="32" height="32" viewBox="0 0 32 32" fill="none" xmlns="http://www.w3.org/2000/svg">
<path d="M5 29C5.27614 29 5.5 28.7761 5.5 28.5C5.5 28.2239 5.27614 28 5 28C4.72386 28 4.5 28.2239 4.5 28.5C4.5 28.7761 4.72386 29 5 29Z" fill="white"/>
<path d="M16 23H17V24H16V23Z" fill="white"/>
<path d="M18 23H19V24H18V23Z" fill="white"/>
<path d="M15 19H13C12.8674 19 12.7402 19.0527 12.6465 19.1465C12.5527 19.2402 12.5 19.3674 12.5 19.5V21.5C12.5 21.6326 12.5527 21.7598 12.6465 21.8535C12.7402 21.9473 12.8674 22 13 22H15C15.1326 22 15.2598 21.9473 15.3535 21.8535C15.4473 21.7598 15.5 21.6326 15.5 21.5V19.5C15.5 19.3674 15.4473 19.2402 15.3535 19.1465C15.2598 19.0527 15.1326 19 15 19ZM14.5 21H13.5V20H14.5V21Z" fill="white"/>
<path d="M25.5 23H26.5V24H25.5V23Z" fill="white"/>
<path d="M27.5 23H28.5V24H27.5V23Z" fill="white"/>
<path d="M22.5 22H24.5C24.6326 22 24.7598 21.9473 24.8535 21.8535C24.9473 21.7598 25 21.6326 25 21.5V19.5C25 19.3674 24.9473 19.2402 24.8535 19.1465C24.7598 19.0527 24.6326 19 24.5 19H22.5C22.3674 19 22.2402 19.0527 22.1465 19.1465C22.0527 19.2402 22 19.3674 22 19.5V21.5C22 21.6326 22.0527 21.7598 22.1465 21.8535C22.2402 21.9473 22.3674 22 22.5 22ZM23 20H24V21H23V20Z" fill="white"/>
<path d="M16 15H17V16H16V15Z" fill="white"/>
<path d="M18 15H19V16H18V15Z" fill="white"/>
<path d="M13 14H15C15.1326 14 15.2598 13.9473 15.3535 13.8535C15.4473 13.7598 15.5 13.6326 15.5 13.5V11.5C15.5 11.3674 15.4473 11.2402 15.3535 11.1465C15.2598 11.0527 15.1326 11 15 11H13C12.8674 11 12.7402 11.0527 12.6465 11.1465C12.5527 11.2402 12.5 11.3674 12.5 11.5V13.5C12.5 13.6326 12.5527 13.7598 12.6465 13.8535C12.7402 13.9473 12.8674 14 13 14V14ZM13.5 12H14.5V13H13.5V12Z" fill="white"/>
<path d="M25.5 15H26.5V16H25.5V15Z" fill="white"/>
<path d="M27.5 15H28.5V16H27.5V15Z" fill="white"/>
<path d="M22.5 14H24.5C24.6326 14 24.7598 13.9473 24.8535 13.8535C24.9473 13.7598 25 13.6326 25 13.5V11.5C25 11.3674 24.9473 11.2402 24.8535 11.1465C24.7598 11.0527 24.6326 11 24.5 11H22.5C22.3674 11 22.2402 11.0527 22.1465 11.1465C22.0527 11.2402 22 11.3674 22 11.5V13.5C22 13.6326 22.0527 13.7598 22.1465 13.8535C22.2402 13.9473 22.3674 14 22.5 14V14ZM23 12H24V13H23V12Z" fill="white"/>
<path d="M30 1H11C10.8674 1.00001 10.7402 1.05269 10.6465 1.14645C10.5527 1.24022 10.5 1.36739 10.5 1.5V26H9.18098L6.32007 23.6159C6.23022 23.541 6.11696 23.5 6 23.5H5.5V15.0962L6.46423 12.6857C6.48786 12.6266 6.5 12.5636 6.5 12.5V10.5C6.49999 10.3674 6.44731 10.2402 6.35355 10.1465C6.25978 10.0527 6.13261 10 6 10H2C1.86739 10 1.74022 10.0527 1.64645 10.1465C1.55269 10.2402 1.50001 10.3674 1.5 10.5V12.5C1.5 12.5636 1.51214 12.6266 1.53577 12.6857L2.5 15.0962V23.5H2C1.86739 23.5 1.74022 23.5527 1.64645 23.6465C1.55269 23.7402 1.50001 23.8674 1.5 24V28C1.50001 28.1326 1.55269 28.2598 1.64645 28.3535C1.74022 28.4473 1.86739 28.5 2 28.5H2.5C2.5 29.163 2.76339 29.7989 3.23223 30.2678C3.70107 30.7366 4.33696 31 5 31C5.66304 31 6.29893 30.7366 6.76777 30.2678C7.23661 29.7989 7.5 29.163 7.5 28.5H10.5V30.5C10.5 30.6326 10.5527 30.7598 10.6465 30.8535C10.7402 30.9473 10.8674 31 11 31H14C14.1326 31 14.2598 30.9473 14.3535 30.8535C14.4473 30.7598 14.5 30.6326 14.5 30.5V28.5H18.5V30.5C18.5 30.6326 18.5527 30.7598 18.6465 30.8535C18.7402 30.9473 18.8674 31 19 31H22C22.1326 31 22.2598 30.9473 22.3535 30.8535C22.4473 30.7598 22.5 30.6326 22.5 30.5V28.5H26.5V30.5C26.5 30.6326 26.5527 30.7598 26.6465 30.8535C26.7402 30.9473 26.8674 31 27 31H30C30.1326 31 30.2598 30.9473 30.3535 30.8535C30.4473 30.7598 30.5 30.6326 30.5 30.5V1.5C30.5 1.36739 30.4473 1.24022 30.3535 1.14645C30.2598 1.05269 30.1326 1.00001 30 1V1ZM11.5 27.5V26H29.5V27.5H11.5ZM29.5 17H21V10H29.5V17ZM29.5 25H21V18H29.5V25ZM11.5 25V18H20V25H11.5ZM20 17H11.5V10H20V17ZM29.5 9H21V2H29.5V9ZM11.5 2H20V9H11.5V2ZM2.5 11H5.5V12.4037L4.6615 14.5H4.5V12H3.5V14.5H3.3385L2.5 12.4037V11ZM3.5 15.5H4.5V23.5H3.5V15.5ZM5 30C4.70333 30 4.41332 29.912 4.16664 29.7472C3.91997 29.5824 3.72771 29.3481 3.61418 29.074C3.50065 28.7999 3.47094 28.4983 3.52882 28.2074C3.5867 27.9164 3.72956 27.6491 3.93934 27.4393C4.14912 27.2296 4.41639 27.0867 4.70736 27.0288C4.99834 26.9709 5.29994 27.0007 5.57403 27.1142C5.84811 27.2277 6.08238 27.42 6.2472 27.6666C6.41203 27.9133 6.5 28.2033 6.5 28.5C6.49955 28.8977 6.34136 29.279 6.06016 29.5602C5.77895 29.8414 5.39769 29.9995 5 30V30ZM7.29062 27.5C7.0962 27.0542 6.77591 26.6748 6.36903 26.4084C5.96215 26.1419 5.48636 26 5 26C4.51364 26 4.03785 26.1419 3.63097 26.4084C3.22409 26.6748 2.90381 27.0542 2.70938 27.5H2.5V24.5H5.81897L8.5 26.7342V27.5H7.29062ZM9.5 27H10.5V27.5H9.5V27ZM13.5 30H11.5V28.5H13.5V30ZM21.5 30H19.5V28.5H21.5V30ZM29.5 30H27.5V28.5H29.5V30Z" fill="white"/>
<path d="M16 7H17V8H16V7Z" fill="white"/>
<path d="M18 7H19V8H18V7Z" fill="white"/>
<path d="M15 3H13C12.8674 3.00001 12.7402 3.05269 12.6465 3.14645C12.5527 3.24022 12.5 3.36739 12.5 3.5V5.5C12.5 5.63261 12.5527 5.75978 12.6465 5.85355C12.7402 5.94731 12.8674 5.99999 13 6H15C15.1326 5.99999 15.2598 5.94731 15.3535 5.85355C15.4473 5.75978 15.5 5.63261 15.5 5.5V3.5C15.5 3.36739 15.4473 3.24022 15.3535 3.14645C15.2598 3.05269 15.1326 3.00001 15 3V3ZM14.5 5H13.5V4H14.5V5Z" fill="white"/>
<path d="M25.5 7H26.5V8H25.5V7Z" fill="white"/>
<path d="M27.5 7H28.5V8H27.5V7Z" fill="white"/>
<path d="M22.5 6H24.5C24.6326 5.99999 24.7598 5.94731 24.8535 5.85355C24.9473 5.75978 25 5.63261 25 5.5V3.5C25 3.36739 24.9473 3.24022 24.8535 3.14645C24.7598 3.05269 24.6326 3.00001 24.5 3H22.5C22.3674 3.00001 22.2402 3.05269 22.1465 3.14645C22.0527 3.24022 22 3.36739 22 3.5V5.5C22 5.63261 22.0527 5.75978 22.1465 5.85355C22.2402 5.94731 22.3674 5.99999 22.5 6ZM23 4H24V5H23V4Z" fill="white"/>
</svg>
