<svg width="32" height="32" viewBox="0 0 32 32" fill="none" xmlns="http://www.w3.org/2000/svg">
<path d="M32 12.8938V8.71669C32 7.90681 31.3411 7.24794 30.5312 7.24794H24.7521V1.46875C24.7521 0.658875 24.0932 0 23.2833 0H12.7774C12.5184 0 12.3086 0.209875 12.3086 0.46875C12.3086 0.727625 12.5184 0.9375 12.7774 0.9375H23.2834C23.5763 0.9375 23.8146 1.17581 23.8146 1.46875V7.24794H8.18544V1.46875C8.18544 1.17581 8.42381 0.9375 8.71669 0.9375H10.9024C11.1613 0.9375 11.3711 0.727625 11.3711 0.46875C11.3711 0.209875 11.1613 0 10.9024 0H8.71669C7.90681 0 7.24794 0.658875 7.24794 1.46875V7.24794H1.46875C0.658875 7.24794 0 7.90681 0 8.71669V12.8938C0 13.8049 0.401125 14.6236 1.03537 15.1842V28.9917H0.96875C0.434563 28.9917 0 29.4263 0 29.9604V31.0312C0 31.5654 0.434563 32 0.96875 32H4.61044C4.86937 32 5.07919 31.7901 5.07919 31.5312C5.07919 31.2724 4.86937 31.0625 4.61044 31.0625H0.96875C0.951563 31.0625 0.9375 31.0485 0.9375 31.0312V29.9604C0.9375 29.9432 0.951563 29.9292 0.96875 29.9292H31.0312C31.0484 29.9292 31.0625 29.9432 31.0625 29.9604V31.0312C31.0625 31.0485 31.0484 31.0625 31.0312 31.0625H6.4855C6.22656 31.0625 6.01675 31.2724 6.01675 31.5312C6.01675 31.7901 6.22656 32 6.4855 32H31.0312C31.5654 32 32 31.5654 32 31.0312V29.9604C32 29.4263 31.5654 28.9917 31.0312 28.9917H30.9646V15.1842C31.5989 14.6236 32 13.8048 32 12.8938ZM0.990375 13.3625H5.12419C4.91019 14.3064 4.06506 15.0136 3.05731 15.0136C2.04956 15.0136 1.20438 14.3064 0.990375 13.3625ZM28.9427 15.0136C27.9349 15.0136 27.0898 14.3064 26.8758 13.3625H31.0096C30.7956 14.3064 29.9504 15.0136 28.9427 15.0136ZM31.0625 8.71669V12.425H26.8229V8.18544H30.5312C30.8241 8.18544 31.0625 8.42375 31.0625 8.71669ZM25.8854 8.18544V12.425H21.6458V8.18544H25.8854ZM25.8326 13.3625C25.6186 14.3064 24.7734 15.0136 23.7656 15.0136C22.7579 15.0136 21.9127 14.3064 21.6987 13.3625H25.8326ZM20.7083 12.425H16.4688V8.18544H20.7083V12.425ZM20.6554 13.3625C20.4414 14.3064 19.5963 15.0136 18.5886 15.0136C17.5808 15.0136 16.7356 14.3064 16.5216 13.3625H20.6554ZM15.5312 12.425H11.2917V8.18544H15.5312V12.425ZM15.4784 13.3625C15.2644 14.3064 14.4192 15.0136 13.4114 15.0136C12.4037 15.0136 11.5586 14.3064 11.3446 13.3625H15.4784ZM10.3542 8.18544V12.425H6.11456V8.18544H10.3542ZM10.3013 13.3625C10.0873 14.3064 9.24212 15.0136 8.23438 15.0136C7.22662 15.0136 6.38144 14.3064 6.16744 13.3625H10.3013ZM0.9375 8.71669C0.9375 8.42375 1.17581 8.18544 1.46875 8.18544H5.17706V12.425H0.9375V8.71669ZM21.6458 28.9917V18.5708C21.6458 18.5536 21.6599 18.5396 21.6771 18.5396H27.925C27.9422 18.5396 27.9562 18.5536 27.9562 18.5708V28.9916H21.6458V28.9917ZM30.0271 28.9917H28.8937V18.5708C28.8937 18.0366 28.4592 17.6021 27.925 17.6021H21.6771C21.1429 17.6021 20.7083 18.0366 20.7083 18.5708V28.9916H1.97287V15.7516C2.31012 15.8801 2.6755 15.951 3.05731 15.951C4.14675 15.951 5.10425 15.3778 5.64581 14.5176C6.18744 15.3778 7.14494 15.951 8.23438 15.951C9.32381 15.951 10.2813 15.3778 10.8229 14.5176C11.3645 15.3778 12.322 15.951 13.4114 15.951C14.5009 15.951 15.4584 15.3778 16 14.5176C16.5416 15.3778 17.4991 15.951 18.5886 15.951C19.678 15.951 20.6355 15.3778 21.1771 14.5176C21.7187 15.3778 22.6762 15.951 23.7656 15.951C24.8551 15.951 25.8126 15.3778 26.3542 14.5176C26.8958 15.3778 27.8533 15.951 28.9427 15.951C29.3245 15.951 29.6898 15.8801 30.0271 15.7516V28.9917Z" fill="#212121"/>
<path d="M26.3542 23.1351C26.0953 23.1351 25.8855 23.345 25.8855 23.6039V24.1216C25.8855 24.3804 26.0953 24.5903 26.3542 24.5903C26.6132 24.5903 26.823 24.3804 26.823 24.1216V23.6039C26.823 23.345 26.6132 23.1351 26.3542 23.1351Z" fill="#212121"/>
<path d="M17.5708 17.6021H4.07495C3.54076 17.6021 3.1062 18.0366 3.1062 18.5708V26.8896C3.1062 27.4237 3.54076 27.8583 4.07495 27.8583H17.5708C18.105 27.8583 18.5396 27.4237 18.5396 26.8896V18.5708C18.5396 18.0366 18.105 17.6021 17.5708 17.6021ZM4.07495 18.5396H17.5708C17.588 18.5396 17.6021 18.5536 17.6021 18.5708V24.85H4.0437V18.5708C4.0437 18.5536 4.05776 18.5396 4.07495 18.5396ZM17.5708 26.9208H4.07495C4.05776 26.9208 4.0437 26.9068 4.0437 26.8896V25.7875H17.6021V26.8896C17.6021 26.9068 17.588 26.9208 17.5708 26.9208Z" fill="#212121"/>
<path d="M9.31885 3.03955V5.1458C9.31885 5.67999 9.75341 6.11455 10.2876 6.11455H21.7126C22.2468 6.11455 22.6813 5.67999 22.6813 5.1458V3.03955C22.6813 2.50536 22.2468 2.0708 21.7126 2.0708H10.2876C9.75341 2.0708 9.31885 2.50536 9.31885 3.03955ZM21.7438 3.03955V5.1458C21.7438 5.16305 21.7298 5.17705 21.7126 5.17705H10.2876C10.2704 5.17705 10.2563 5.16305 10.2563 5.1458V3.03955C10.2563 3.0223 10.2704 3.0083 10.2876 3.0083H21.7126C21.7298 3.0083 21.7438 3.0223 21.7438 3.03955Z" fill="#212121"/>
<path d="M8.52409 23.1495C8.5914 23.1832 8.66296 23.1991 8.7334 23.1991C8.90534 23.1991 9.0709 23.1041 9.15303 22.9399L10.1884 20.8691C10.3042 20.6375 10.2103 20.3559 9.97878 20.2402C9.74709 20.1243 9.46559 20.2183 9.34984 20.4498L8.31446 22.5206C8.19871 22.7522 8.29259 23.0337 8.52409 23.1495Z" fill="#212121"/>
<path d="M11.6303 23.1495C11.6976 23.1832 11.7692 23.1991 11.8396 23.1991C12.0115 23.1991 12.1771 23.1041 12.2592 22.9399L13.2946 20.8691C13.4104 20.6375 13.3165 20.3559 13.085 20.2402C12.8534 20.1243 12.5718 20.2183 12.456 20.4498L11.4207 22.5206C11.3049 22.7522 11.3988 23.0337 11.6303 23.1495Z" fill="#212121"/>
</svg>
