<svg width="22" height="22" viewBox="0 0 22 22" fill="none" xmlns="http://www.w3.org/2000/svg">
<path d="M20.3026 8.85156H14.8026C14.7081 8.85156 14.6308 8.92891 14.6308 9.02344V10.0547C14.6308 10.1492 14.7081 10.2266 14.8026 10.2266H20.3026C20.3972 10.2266 20.4745 10.1492 20.4745 10.0547V9.02344C20.4745 8.92891 20.3972 8.85156 20.3026 8.85156ZM17.4237 11.7734H14.8026C14.7081 11.7734 14.6308 11.8508 14.6308 11.9453V12.9766C14.6308 13.0711 14.7081 13.1484 14.8026 13.1484H17.4237C17.5183 13.1484 17.5956 13.0711 17.5956 12.9766V11.9453C17.5956 11.8508 17.5183 11.7734 17.4237 11.7734ZM10.2544 6.92871H9.32412C9.19092 6.92871 9.0835 7.03613 9.0835 7.16934V12.4975C9.0835 12.5748 9.12002 12.6457 9.18232 12.6908L12.3813 15.024C12.4888 15.1014 12.6392 15.0799 12.7165 14.9725L13.2687 14.2184V14.2162C13.346 14.1088 13.3224 13.9584 13.2149 13.8811L10.4929 11.9131V7.16934C10.495 7.03613 10.3854 6.92871 10.2544 6.92871Z" fill="#212121"/>
<path d="M17.2906 14.4783H16.0488C15.9285 14.4783 15.8147 14.5406 15.7502 14.6437C15.4774 15.0756 15.1594 15.4752 14.7942 15.8404C14.1647 16.4699 13.432 16.964 12.6178 17.3078C11.7735 17.6644 10.8776 17.8449 9.95372 17.8449C9.02775 17.8449 8.13185 17.6644 7.28966 17.3078C6.4754 16.964 5.74279 16.4699 5.1133 15.8404C4.4838 15.2109 3.98966 14.4783 3.64591 13.664C3.28927 12.8218 3.1088 11.9259 3.1088 11C3.1088 10.074 3.28927 9.18025 3.64591 8.33591C3.98966 7.52165 4.4838 6.78903 5.1133 6.15954C5.74279 5.53005 6.4754 5.03591 7.28966 4.69216C8.13185 4.33552 9.0299 4.15505 9.95372 4.15505C10.8797 4.15505 11.7756 4.33552 12.6178 4.69216C13.432 5.03591 14.1647 5.53005 14.7942 6.15954C15.1594 6.52478 15.4774 6.92439 15.7502 7.35622C15.8147 7.45935 15.9285 7.52165 16.0488 7.52165H17.2906C17.4389 7.52165 17.5334 7.36696 17.4668 7.23591C16.066 4.44939 13.2258 2.63825 10.0547 2.60173C5.41193 2.54372 1.55548 6.34431 1.54689 10.9828C1.5383 15.6299 5.30451 19.4004 9.95158 19.4004C13.1635 19.4004 16.051 17.5828 17.4668 14.764C17.5334 14.633 17.4367 14.4783 17.2906 14.4783Z" fill="#212121"/>
</svg>
