<svg width="17" height="17" viewBox="0 0 17 17" fill="none" xmlns="http://www.w3.org/2000/svg">
<path d="M8.5 0C3.8131 0 0 3.8131 0 8.5C0 13.1869 3.8131 17 8.5 17C13.1869 17 17 13.1869 17 8.5C17 3.8131 13.1869 0 8.5 0ZM1.7 8.5C1.7 7.73585 1.8326 7.0023 2.06635 6.31635L3.4 7.65L5.1 9.35V11.05L6.8 12.75L7.65 13.6V15.2414C4.30185 14.8206 1.7 11.9612 1.7 8.5ZM13.8805 12.642C13.3254 12.195 12.484 11.9 11.9 11.9V11.05C11.9 10.5991 11.7209 10.1667 11.4021 9.84792C11.0833 9.52911 10.6509 9.35 10.2 9.35H6.8V6.8C7.25087 6.8 7.68327 6.62089 8.00208 6.30208C8.32089 5.98327 8.5 5.55087 8.5 5.1V4.25H9.35C9.80087 4.25 10.2333 4.07089 10.5521 3.75208C10.8709 3.43327 11.05 3.00087 11.05 2.55V2.20065C13.5388 3.2113 15.3 5.6525 15.3 8.5C15.2998 9.99999 14.8004 11.4573 13.8805 12.642Z" fill="#212121"/>
</svg>
