<svg width="26" height="26" viewBox="0 0 26 26" fill="none" xmlns="http://www.w3.org/2000/svg">
<path d="M19.5 5.28125V6.5H20.3125C21.3899 6.5 22.4233 6.92801 23.1851 7.68988C23.947 8.45175 24.375 9.48506 24.375 10.5625V16.6562C24.375 17.4105 24.0754 18.1338 23.5421 18.6671C23.0088 19.2004 22.2855 19.5 21.5312 19.5H20.3125V20.7188C20.3125 21.473 20.0129 22.1963 19.4796 22.7296C18.9463 23.2629 18.223 23.5625 17.4688 23.5625H8.53125C7.77704 23.5625 7.05372 23.2629 6.52042 22.7296C5.98711 22.1963 5.6875 21.473 5.6875 20.7188V19.5H4.46875C3.71454 19.5 2.99122 19.2004 2.45792 18.6671C1.92461 18.1338 1.625 17.4105 1.625 16.6562V10.5625C1.625 9.48506 2.05301 8.45175 2.81488 7.68988C3.57675 6.92801 4.61006 6.5 5.6875 6.5H6.5V5.28125C6.5 4.52704 6.79961 3.80372 7.33292 3.27042C7.86622 2.73711 8.58954 2.4375 9.34375 2.4375H16.6562C17.4105 2.4375 18.1338 2.73711 18.6671 3.27042C19.2004 3.80372 19.5 4.52704 19.5 5.28125ZM8.125 5.28125V6.5H17.875V5.28125C17.875 4.95802 17.7466 4.64802 17.518 4.41946C17.2895 4.1909 16.9795 4.0625 16.6562 4.0625H9.34375C9.02052 4.0625 8.71052 4.1909 8.48196 4.41946C8.2534 4.64802 8.125 4.95802 8.125 5.28125ZM7.3125 20.7188C7.3125 21.042 7.4409 21.352 7.66946 21.5805C7.89802 21.8091 8.20802 21.9375 8.53125 21.9375H17.4688C17.792 21.9375 18.102 21.8091 18.3305 21.5805C18.5591 21.352 18.6875 21.042 18.6875 20.7188V15.8438C18.6875 15.5205 18.5591 15.2105 18.3305 14.982C18.102 14.7534 17.792 14.625 17.4688 14.625H8.53125C8.20802 14.625 7.89802 14.7534 7.66946 14.982C7.4409 15.2105 7.3125 15.5205 7.3125 15.8438V20.7188ZM20.3125 17.875H21.5312C21.8545 17.875 22.1645 17.7466 22.393 17.518C22.6216 17.2895 22.75 16.9795 22.75 16.6562V10.5625C22.75 9.91603 22.4932 9.29605 22.0361 8.83893C21.579 8.38181 20.959 8.125 20.3125 8.125H5.6875C5.04103 8.125 4.42105 8.38181 3.96393 8.83893C3.50681 9.29605 3.25 9.91603 3.25 10.5625V16.6562C3.25 16.9795 3.3784 17.2895 3.60696 17.518C3.83552 17.7466 4.14552 17.875 4.46875 17.875H5.6875V15.8438C5.6875 15.0895 5.98711 14.3662 6.52042 13.8329C7.05372 13.2996 7.77704 13 8.53125 13H17.4688C18.223 13 18.9463 13.2996 19.4796 13.8329C20.0129 14.3662 20.3125 15.0895 20.3125 15.8438V17.875Z" fill="white"/>
</svg>
