<svg width="22" height="22" viewBox="0 0 22 22" fill="none" xmlns="http://www.w3.org/2000/svg">
<path d="M11.8378 3.11582C11.7429 3.04098 11.6234 3 11.5 3C11.3766 3 11.2571 3.04098 11.1622 3.11582L7.99556 5.61587C7.94043 5.65732 7.8946 5.70878 7.86078 5.76725C7.82695 5.82572 7.80582 5.89 7.7986 5.95632C7.79139 6.02265 7.79825 6.08966 7.81878 6.15344C7.83931 6.21721 7.8731 6.27645 7.91815 6.32767C7.96321 6.37888 8.01862 6.42105 8.08112 6.45168C8.14363 6.48231 8.21197 6.50079 8.28213 6.50603C8.35229 6.51127 8.42284 6.50316 8.48964 6.48219C8.55645 6.46121 8.61814 6.42779 8.67111 6.38389L11.5 4.15084L14.3289 6.38389C14.4368 6.46503 14.574 6.50296 14.711 6.48958C14.8481 6.4762 14.9742 6.41258 15.0624 6.3123C15.1506 6.21202 15.1939 6.08304 15.1831 5.95291C15.1723 5.82278 15.1081 5.70182 15.0044 5.61587L11.8378 3.11582ZM15.0044 16.3841L11.8378 18.8842C11.7429 18.959 11.6234 19 11.5 19C11.3766 19 11.2571 18.959 11.1622 18.8842L7.99556 16.3841C7.94043 16.3427 7.8946 16.2912 7.86078 16.2328C7.82695 16.1743 7.80582 16.11 7.7986 16.0437C7.79139 15.9774 7.79825 15.9103 7.81878 15.8466C7.83931 15.7828 7.8731 15.7236 7.91815 15.6723C7.96321 15.6211 8.01862 15.579 8.08112 15.5483C8.14363 15.5177 8.21197 15.4992 8.28213 15.494C8.35229 15.4887 8.42284 15.4968 8.48964 15.5178C8.55645 15.5388 8.61814 15.5722 8.67111 15.6161L11.5 17.8492L14.3289 15.6161C14.4368 15.535 14.574 15.497 14.711 15.5104C14.8481 15.5238 14.9742 15.5874 15.0624 15.6877C15.1506 15.788 15.1939 15.917 15.1831 16.0471C15.1723 16.1772 15.1081 16.2982 15.0044 16.3841ZM12.2917 9.74997C12.2917 9.94889 12.2083 10.1397 12.0598 10.2803C11.9113 10.421 11.71 10.5 11.5 10.5C11.29 10.5 11.0887 10.421 10.9402 10.2803C10.7917 10.1397 10.7083 9.94889 10.7083 9.74997C10.7083 9.55105 10.7917 9.36028 10.9402 9.21963C11.0887 9.07897 11.29 8.99995 11.5 8.99995C11.71 8.99995 11.9113 9.07897 12.0598 9.21963C12.2083 9.36028 12.2917 9.55105 12.2917 9.74997ZM11.5 13C11.71 13 11.9113 12.921 12.0598 12.7804C12.2083 12.6397 12.2917 12.4489 12.2917 12.25C12.2917 12.0511 12.2083 11.8603 12.0598 11.7197C11.9113 11.579 11.71 11.5 11.5 11.5C11.29 11.5 11.0887 11.579 10.9402 11.7197C10.7917 11.8603 10.7083 12.0511 10.7083 12.25C10.7083 12.4489 10.7917 12.6397 10.9402 12.7804C11.0887 12.921 11.29 13 11.5 13ZM17.8333 10.5C17.8333 10.1022 18.0001 9.72061 18.2971 9.4393C18.594 9.15799 18.9967 8.99995 19.4167 8.99995C19.8366 8.99995 20.2393 9.15799 20.5362 9.4393C20.8332 9.72061 21 10.1022 21 10.5V11.5C21 11.8978 20.8332 12.2794 20.5362 12.5607C20.2393 12.842 19.8366 13 19.4167 13C18.9967 13 18.594 12.842 18.2971 12.5607C18.0001 12.2794 17.8333 11.8978 17.8333 11.5V10.5ZM19.4167 9.99998C19.2767 9.99998 19.1424 10.0527 19.0435 10.1464C18.9445 10.2402 18.8889 10.3674 18.8889 10.5V11.5C18.8889 11.6326 18.9445 11.7598 19.0435 11.8536C19.1424 11.9473 19.2767 12 19.4167 12C19.5566 12 19.6909 11.9473 19.7899 11.8536C19.8888 11.7598 19.9444 11.6326 19.9444 11.5V10.5C19.9444 10.3674 19.8888 10.2402 19.7899 10.1464C19.6909 10.0527 19.5566 9.99998 19.4167 9.99998ZM7.80556 8.99995C7.38563 8.99995 6.9829 9.15799 6.68597 9.4393C6.38904 9.72061 6.22222 10.1022 6.22222 10.5V11.5C6.22222 11.8978 6.38904 12.2794 6.68597 12.5607C6.9829 12.842 7.38563 13 7.80556 13C8.22548 13 8.62821 12.842 8.92514 12.5607C9.22207 12.2794 9.38889 11.8978 9.38889 11.5V10.5C9.38889 10.1022 9.22207 9.72061 8.92514 9.4393C8.62821 9.15799 8.22548 8.99995 7.80556 8.99995ZM7.27778 10.5C7.27778 10.3674 7.33338 10.2402 7.43236 10.1464C7.53134 10.0527 7.66558 9.99998 7.80556 9.99998C7.94553 9.99998 8.07977 10.0527 8.17875 10.1464C8.27773 10.2402 8.33333 10.3674 8.33333 10.5V11.5C8.33333 11.6326 8.27773 11.7598 8.17875 11.8536C8.07977 11.9473 7.94553 12 7.80556 12C7.66558 12 7.53134 11.9473 7.43236 11.8536C7.33338 11.7598 7.27778 11.6326 7.27778 11.5V10.5ZM13.6111 10.5C13.6111 10.1022 13.7779 9.72061 14.0749 9.4393C14.3718 9.15799 14.7745 8.99995 15.1944 8.99995C15.6144 8.99995 16.0171 9.15799 16.314 9.4393C16.611 9.72061 16.7778 10.1022 16.7778 10.5V11.5C16.7778 11.8978 16.611 12.2794 16.314 12.5607C16.0171 12.842 15.6144 13 15.1944 13C14.7745 13 14.3718 12.842 14.0749 12.5607C13.7779 12.2794 13.6111 11.8978 13.6111 11.5V10.5ZM15.1944 9.99998C15.0545 9.99998 14.9202 10.0527 14.8212 10.1464C14.7223 10.2402 14.6667 10.3674 14.6667 10.5V11.5C14.6667 11.6326 14.7223 11.7598 14.8212 11.8536C14.9202 11.9473 15.0545 12 15.1944 12C15.3344 12 15.4687 11.9473 15.5676 11.8536C15.6666 11.7598 15.7222 11.6326 15.7222 11.5V10.5C15.7222 10.3674 15.6666 10.2402 15.5676 10.1464C15.4687 10.0527 15.3344 9.99998 15.1944 9.99998ZM3.58333 8.99995C3.16341 8.99995 2.76068 9.15799 2.46375 9.4393C2.16682 9.72061 2 10.1022 2 10.5V11.5C2 11.8978 2.16682 12.2794 2.46375 12.5607C2.76068 12.842 3.16341 13 3.58333 13C4.00326 13 4.40599 12.842 4.70292 12.5607C4.99985 12.2794 5.16667 11.8978 5.16667 11.5V10.5C5.16667 10.1022 4.99985 9.72061 4.70292 9.4393C4.40599 9.15799 4.00326 8.99995 3.58333 8.99995ZM3.05556 10.5C3.05556 10.3674 3.11116 10.2402 3.21014 10.1464C3.30912 10.0527 3.44336 9.99998 3.58333 9.99998C3.72331 9.99998 3.85755 10.0527 3.95653 10.1464C4.05551 10.2402 4.11111 10.3674 4.11111 10.5V11.5C4.11111 11.6326 4.05551 11.7598 3.95653 11.8536C3.85755 11.9473 3.72331 12 3.58333 12C3.44336 12 3.30912 11.9473 3.21014 11.8536C3.11116 11.7598 3.05556 11.6326 3.05556 11.5V10.5Z" fill="#212121"/>
</svg>
